<?xml version="1.0" standalone="no"?>
<!DOCTYPE svg PUBLIC "-//W3C//DTD SVG 20010904//EN"
 "http://www.w3.org/TR/2001/REC-SVG-20010904/DTD/svg10.dtd">
<svg version="1.0" xmlns="http://www.w3.org/2000/svg"
 width="500.000000pt" height="500.000000pt" viewBox="0 0 500.000000 500.000000"
 preserveAspectRatio="xMidYMid meet">

<g transform="translate(0.000000,500.000000) scale(0.100000,-0.100000)"
fill="#000000" stroke="none">
<path d="M1586 3331 c-15 -17 -17 -66 -14 -617 3 -573 4 -602 24 -669 61 -204
149 -339 303 -463 62 -50 68 -52 125 -52 211 0 451 108 610 274 47 50 130 166
122 173 -2 2 -23 -5 -48 -16 -25 -10 -85 -24 -134 -30 -223 -29 -407 51 -478
208 -50 113 -56 182 -56 699 0 459 -1 473 -20 492 -19 19 -33 20 -218 20 -182
0 -200 -2 -216 -19z"/>
<path d="M2740 3031 c0 -7 -5 -9 -12 -5 -7 4 -8 3 -4 -4 4 -7 1 -12 -8 -12 -9
0 -16 -4 -16 -10 0 -5 4 -10 8 -10 14 0 46 39 39 47 -4 3 -7 1 -7 -6z"/>
<path d="M2752 3020 c-15 -25 -15 -33 1 -27 6 2 12 8 12 13 0 5 4 15 8 22 5 6
4 12 0 12 -5 0 -14 -9 -21 -20z"/>
</g>
</svg>
